<svg id="Layer_1" data-name="Layer 1" xmlns="http://www.w3.org/2000/svg" viewBox="0 0 512 512"><defs><style>.cls-1{fill:#238b53;}</style></defs><title>Artboard 1</title><path class="cls-1" d="M278,125.71S273.53,107.58,299.39,94C299.39,94,297.17,118.91,278,125.71Z"/><path class="cls-1" d="M266.75,120.06s-18.28-.64-23.93-29.81C242.82,90.25,265.65,99.3,266.75,120.06Z"/><path class="cls-1" d="M265.32,131.79s-7.05,17.24-35.74,12.35C229.58,144.14,245.94,125.5,265.32,131.79Z"/><path class="cls-1" d="M102.36,332.57c-10.23.11-23.33-7.09-25.64-6.75-3.74.56-3.74,3.49-5.06,6.3H69.12c.45-6.3.66-9.9.88-16.2s.12-9.79,0-16l2.43.22.66,5.29c1.76,12.71,13.87,25.32,28.39,24.76,11.89-.57,22.34-6.76,21.9-20.59-.55-13.06-11.11-15.86-21.68-19.47l-10.34-3.49c-10.9-3.71-19.59-11-19.7-22.73-.11-15.4,12.44-23.51,25.86-23.51s17.94,6.53,24.55,5.74c2.63-.23,2.86-3.15,3.85-5.52l2.09.57a93.09,93.09,0,0,0-1.1,13.5,114.35,114.35,0,0,0,.87,15h-2.41l-1.55-7.09C121.4,251,109.62,242,97.74,242.44c-9.8.34-19.15,6.53-19.37,16.54-.22,10.36,9.9,14.52,19.59,17.44l9.91,3c12.77,3.94,23.22,10.13,23.44,26C131.53,325.15,114,332.57,102.36,332.57Z"/><path class="cls-1" d="M195,298.7c0,14.86-4.85,29.37-19.15,28.92-12.87-.45-19-8.22-19.59-27.68-.44-16.76,3.85-30.49,19.81-30.27C190.74,269.9,194.92,285.2,195,298.7Zm9.69.46c.1-16.21-7.6-32.29-25.31-32.63-10.13-.12-18.83,4.38-22.24,14.06l-.88,2.47V270.8c0-1.58.33-3.93-.44-4.05-2.2-.11-4,.9-6.49,1.12-8.15.57-7.82.68-12.77.57l.11,2h2.53a13.81,13.81,0,0,1,6.27,1.23c2.09,1.34,2.43,6.19,2.43,10.24v63c0,2.58-.78,6.07-1.32,6.52a9.13,9.13,0,0,1-6.61,2.14h-3.41v2c6.16-.34,9.9-.57,16.07-.57s9.79,0,16,.35l.1-1.92h-2.41c-3.09,0-5.95-.11-7.71-2-2.2-2.25-2-5.18-2-8.66V316l2.09,4.05c3.63,7.09,12,10.92,20,10.92C196.46,331.11,204.61,315.13,204.72,299.16Z"/><path class="cls-1" d="M258.2,283.85a5.81,5.81,0,0,1-5.94-6c0-4.05,2.86-4.05,2.64-5.85-.11-1.47-3.52-2.59-5.83-2.37-10.57,1-18.93,16.09-18.93,29.93v20c0,2.93,1.21,5.74,3.41,6.75,1.87,1,4.4,1,7.26,1.13l4.18.33v2c-7.37-.34-11.77-.45-19.15-.45-6.71,0-10.45.22-17.05.68v-2.26l5.06-.11c2.53-.11,4.84-.79,6.16-2.25,1.65-1.91,1.54-3.94,1.54-6.52V276.54a5.44,5.44,0,0,0-1.65-4.17c-1.54-1.69-3.41-1.8-5.61-1.9l-4.4-.23v-1.69a68.47,68.47,0,0,0,10.78-.68c3.3-.34,7.82-1.69,8.47-1.46s.56,1.24.56,1.92V290l2.19-5.52c3.86-10,9.7-17.43,20.59-18,5.17-.23,11,2.25,11.44,10.12C264,280.25,261.61,283.85,258.2,283.85Z"/><path class="cls-1" d="M317.08,299.82c-.22,14.19-2.64,30.5-19.58,30.73-14.43.22-20.25-15.31-20.25-31.85,0-15.19,3.95-30.71,20.35-30.71C313.23,268,317.2,285.31,317.08,299.82Zm10.13,0c-.11-18-12.66-33.41-29.71-33.52-17.84-.12-30.28,13.95-30.28,32.18S280.33,332.12,297.6,332C314.34,332,327.21,318.5,327.21,299.82Z"/><path class="cls-1" d="M389,329.64c-3.08.34-4.84.57-7.71,1.13a71.56,71.56,0,0,1-.77-8.1c-.11-3.83-.11-5.18,0-8.44l-3,4.73c-4.94,7.76-10.12,11.81-20.14,12.15-11.44.44-16.5-8.44-16.5-17.89V279.35c0-2.7-.11-4.73-1.77-6.53-1.87-2-4-2.25-6.6-2.25l-3.52.11v-2a101.5,101.5,0,0,0,10.23-.46c3.64-.34,6.72-1.91,9.25-1.23.88.11.77,1.91.77,3.15v43.54c0,7.31,4.29,14.4,12.54,13.95,9.35-.45,18.27-10.57,18.27-21.83V282.17c0-4.05-.11-8.44-2.2-10.13a7,7,0,0,0-5.06-1.57h-5v-2c3.75-.11,5.95-.23,9.69-.57s4.95-.89,10-1.34c1.21,0,.66,2,.66,3.37V315c0,3.72.22,7.77,1.65,9.35s2.53,2.47,4.51,2.81l2.64.45v1.69A65.36,65.36,0,0,0,389,329.64Z"/><path class="cls-1" d="M441.44,317.16c-2.42,7.75-7.7,13.61-15.62,13.72-9.36.12-13.76-8.66-13.76-17.32V270.47l-12-.12-.11-1.57c4.18-.79,10.13-3.38,12.77-6.42,2.86-3.15,5.5-7.2,6.27-15.63h1.65v21.48h17.94v2H420.75v44.21c0,5.29,2.86,10.46,8.59,10.58,5.17.12,8.58-3.83,10.45-8.77l1.55-4.06,1.53.45Z"/><path class="cls-1" d="M155.26,247.59c-1,3.24-3.21,5.67-6.51,5.72-3.89.05-5.72-3.61-5.72-7.22v-18l-5,0-.05-.66a10.64,10.64,0,0,0,5.32-2.67,10.07,10.07,0,0,0,2.61-6.51h.69v8.94h7.47v.85h-7.43v18.42c0,2.2,1.2,4.36,3.59,4.4,2.15,0,3.57-1.59,4.35-3.65l.64-1.69.64.19Z"/><path class="cls-1" d="M179.46,252.75c-2.24,0-3.53,0-5.77.09V252l1.51-.09a2.78,2.78,0,0,0,1.79-.61c.77-.84.64-2,.64-3.28v-11.9c0-3.75-1.38-8.11-5.45-8-5.18.14-7.52,5.48-7.52,10.5v7.13c0,2.2-.14,4.25.69,5.34a3.2,3.2,0,0,0,2.24.84l1.33.14.05.84c-2.34-.19-3.71-.23-6.05-.23a57.17,57.17,0,0,0-5.73.23l-.05-.75,1.79-.14a2.21,2.21,0,0,0,1.88-1c.5-.89.5-3.15.5-5.17V220.88a3.41,3.41,0,0,0-.5-2.34,2.54,2.54,0,0,0-2-1.13l-1.38-.13v-.62a18.9,18.9,0,0,0,4.86-.51,17,17,0,0,1,2.2-.56c.32-.05.28.75.28,1.26L164.75,234l.78-1.83a8.61,8.61,0,0,1,8.43-5.58c4.63,0,7.24,4.13,7.24,8.53V248a5.13,5.13,0,0,0,.69,3.28,2.6,2.6,0,0,0,1.88.76l1.56.09v.85C183.08,252.79,181.71,252.75,179.46,252.75Z"/><path class="cls-1" d="M206.09,238.08H190.74c0-6.94,3.35-10.69,7.74-10.69,6.19.05,7.25,5.67,7.47,9Zm3.85,6.42-.82-.28c-1.47,6.55-6.56,8.15-9.54,8-5.27-.19-9.12-4.69-8.84-13.17H209.9c.22-6.56-3.9-12.37-11.46-12.37s-11.83,5.9-11.83,13.4c0,6.9,3.9,13.12,11.42,13.46C203.62,253.73,208.43,251.57,209.94,244.5Z"/><path class="cls-1" d="M206.57,346.93a3.13,3.13,0,0,1-3.1-2.95,3,3,0,0,1,2-3.23,5.4,5.4,0,0,0-3.58-1.48,5.82,5.82,0,0,0-6,5.55v10.34h9.22v1.19H196v30.78c0,1.75.35,2.95,1.38,3.79,1.23,1.06,3.23,1.13,5.22,1.21l3,.14v1.19H182.44v-1.19l3.3-.14a6.79,6.79,0,0,0,3.92-1.35c1.24-1,1.31-2,1.31-3.73V356.49h-8.8v-1.26h8.66v-6.69c0-6,5-10.26,11.48-10.19,3.43,0,7.29,1.41,7.29,5.14A3.23,3.23,0,0,1,206.57,346.93Z"/><path class="cls-1" d="M246.16,393.32c-1.93.21-3,.35-4.82.69a43.12,43.12,0,0,1-.48-5.05c-.07-2.39-.07-3.24,0-5.27L239,386.64c-3.1,4.86-6.33,7.37-12.59,7.59-7.15.28-10.31-5.27-10.31-11.18V361.9c0-1.68-.07-2.95-1.1-4.08s-2.47-1.4-4.12-1.4l-2.21.07v-1.26a58.64,58.64,0,0,0,6.4-.3c2.27-.2,4.19-1.18,5.77-.76.55.07.49,1.2.49,2v27.19c0,4.56,2.68,9,7.83,8.71,5.85-.28,11.42-6.61,11.42-13.63V363.66c0-2.53-.08-5.27-1.38-6.32a4.35,4.35,0,0,0-3.16-1H233v-1.27c2.34-.07,3.72-.15,6.06-.35s3.09-.56,6.25-.84c.75,0,.41,1.27.41,2.11v28.18c0,2.32.14,4.85,1,5.83a4.88,4.88,0,0,0,2.81,1.76l1.65.28v1.06A40,40,0,0,0,246.16,393.32Z"/><path class="cls-1" d="M298.54,393.59c-3.36-.27-5.29-.34-8.66-.34s-5.57.07-9.07.28v-1.48l1.92-.07a4.1,4.1,0,0,0,2.82-.84c1.31-1,1.24-2.53,1.24-4.22V367.39c0-8.86-2.07-11.61-7.29-11.74-6.6-.07-12.24,7.52-12.31,15.11l-.07,15c0,2,.21,4.14,1.38,5.05a5.1,5.1,0,0,0,3.09,1.2l2.27.14v1.4c-3.71-.2-5.91-.27-9.62-.27s-5.85,0-9.56.21v-1.4l2.89-.08a4,4,0,0,0,2.67-.69c1.17-.92,1.38-2.2,1.38-3.74V361.2a4.63,4.63,0,0,0-1.09-3.51c-1-1.14-2.28-1.27-3.86-1.34l-2.2-.15v-1.12c2.13-.07,3.44-.15,5.5-.28,2.47-.14,5-.83,6.4-.69.82.13.62,1.19.62,2v9.47l.82-2.17c1.59-4,5.77-9.21,11.49-9.77,6.46-.7,12.92,3.16,12.92,11.94l.07,20.1c0,1.83-.28,3.44,1,4.78a3.61,3.61,0,0,0,2.47,1.2l2.82.35Z"/><path class="cls-1" d="M330.58,373.57c.27,9.63-2.06,19-12.1,18.83-9.22-.13-12.1-9.56-12.1-18,0-9.28,3.1-18.63,12.1-18.35C326.52,356.2,330.24,361.9,330.58,373.57Zm10.31,18.2a4.32,4.32,0,0,1-3.91-.85c-1.58-1.12-1.45-3.58-1.45-6v-44c0-1.35.21-3.3-.27-3.3-2.48,0-4,.9-6.6,1.18a46.25,46.25,0,0,1-5.51.3v1.18l1.18-.07a9.41,9.41,0,0,1,3.85.85c.41.2,1.78,1.2,1.78,2.31v19.33l-.89-1.54c-2.75-4.71-6.32-6.82-12-6.89-11.07-.07-16.5,9.7-16.64,19.89s4.74,20.38,15.81,20.31c6.33,0,11.48-2.81,13.89-8.79l.62-1.54V394c1.65-.2,2.54-.27,4.19-.42,2.27-.27,3.58-.42,5.84-.54Z"/><path class="cls-1" d="M271.26,129.77s30.38,37.46,1.07,65.21c-7.79,7.38-34.24,27,7.61,68,0,0-52.63-38.25-13.93-71C297.31,165.54,271.2,132.91,271.26,129.77Z"/><path class="cls-1" d="M202.8,197.71S322,173.6,401.86,239.2C401.86,239.2,311.5,185.65,202.8,197.71Z"/><path class="cls-1" d="M256,486A230,230,0,0,1,93.37,93.37,230,230,0,1,1,418.63,418.63,228.44,228.44,0,0,1,256,486Zm0-449.36C135.05,36.64,36.64,135,36.64,256S135.05,475.36,256,475.36,475.36,377,475.36,256,377,36.64,256,36.64Z"/></svg>