<?xml version="1.0" encoding="utf-8"?>
<!DOCTYPE svg PUBLIC "-//W3C//DTD SVG 1.1//EN" "http://www.w3.org/Graphics/SVG/1.1/DTD/svg11.dtd">
<svg xmlns="http://www.w3.org/2000/svg" viewBox="0 0 223 212" preserveAspectRatio="xMidYMid meet" focusable="false" height="131" width="138" role="img" aria-hidden="true">
  <path fill="#5E6974" d="M63 109.3c-.1 15.1-11.2 27.7-27.3 27.7-19.2 0-28.1-14.4-28.3-27.7 0-16.5 12.3-27.6 27.9-27.6 14.8-.1 26.2 10.4 27.4 25.1l7.1-.4V75.9h-7.5v10.9c-5.4-6.7-15-12.3-27.2-12.4-10.8 0-19.8 4.1-25.9 10.6-12.5 13.8-12.6 34.8-.1 48.5 6.1 6.5 15 10.8 26 10.8 11.4 0 21-4.7 27.2-12.5v19.8c0 17-13.3 27.8-26.8 27.9-6.2-.1-12.2-2.2-17.1-6-3.1-2.5-5.8-5.6-7.7-9.1l-.6-1H2.2l1.2 2.9c5.9 13.3 19.5 20.5 32.7 20.5 7.5-.3 14.7-2.9 20.7-7.5 7.1-5.4 13-14.6 13.1-28.3v-41.7l-7-.5v.5h.1zm149.9-24.9c-13.5-14-35.8-14.4-49.8-.8-6.4 6.2-9.9 14.3-10.7 22.6l8.1.6c1.1-14.6 12.5-25.1 27.4-25.2 15.8 0 27.5 11.8 27.5 27.6 0 15.9-11.8 27.6-27.5 27.6-15.8 0-27.5-11.8-27.5-27.6v-.1l-8.1.5c.2 8.6 3.4 17.2 9.9 23.8 6.7 6.9 16 10.9 25.8 10.8 19.5-.1 35.1-15.9 35-35.4-.1-9.1-3.7-17.9-10.1-24.4zM86.6 104.6c1.1-8.3 6-15 12.7-18.9l-.2-.5.3.4c4.1-2.5 9-3.8 14.3-3.8h1c1.6 0 3.1.1 4.7.4l2.7-6.7c-2.7-.6-5.5-.9-8.4-.9-18.2-.3-33.3 13.5-35 31.3l7.8-.5c.1-.4.1-.6.1-.8zm48.6-12.8l.1-.1-.1.1c3 3.6 5 8 5.7 12.6v.7l7.6.5c-1.3-14.1-9.9-24.2-21.2-28.8l-2.3 6.8c4 2.1 7.5 4.9 10.2 8.2zm-39.5 38.6c-2-1.7-3.7-3.6-5.1-5.7l-.1.1.1-.1c-2.5-3.8-3.9-8.3-4.1-12.8v-1.4l-7.8-.7c-.2 13.8 7.8 25.7 19.5 31.3l2.4-7.3c-1.8-1.1-3.4-2.1-4.9-3.4zm16.2 13.9h2.1c12.2 0 24.1-5.9 30.5-17.9h-8.8c-5.1 6.9-13 10.7-22 10.7h-.2c-2.7 0-5.3-.5-7.8-1.2l-2.9 7c3 .8 6 1.3 9.1 1.4z"></path>
  <path fill="#F47822" d="M160.5 106.7l-8.1-.6-3.8-.3-7.7-.5-18.5-1.3 12.8-12.1.2-.1-.2.1-15.6 8.6 5.5-16.5 2.3-6.9 25.5-77-30.6 75.4-2.8 6.7-7 17.4-12.8-14-.4-.4.2.5 7.3 18.3-20.1 1.2-7.8.5-8.8.5-7.1.5-13.1.8 13.3 1 7 .5 8.7.6 7.7.6 17.9 1.3-13.7 12.9-.2.1.2-.1 15.7-8.9-5.8 17.9-2.5 7.3-23.2 71 28.1-69.1 2.9-7 8.1-20.1 15.1 16.7-8.8-20.7 32.1-2.1 8.1-.5 17.6-1-17.7-1.2z"></path>
</svg>