<?xml version="1.0" encoding="UTF-8" standalone="no"?>
<svg width="177px" height="99px" viewBox="0 0 177 99" version="1.1" xmlns="http://www.w3.org/2000/svg" xmlns:xlink="http://www.w3.org/1999/xlink">
    <!-- Generator: Sketch 39.1 (31720) - http://www.bohemiancoding.com/sketch -->
    <title>Logo</title>
    <desc>Created with Sketch.</desc>
    <defs></defs>
    <g id="WCAG-AA-Contrast" stroke="none" stroke-width="1" fill="none" fill-rule="evenodd">
        <g id="Homepage" transform="translate(-20.000000, -20.000000)">
            <g id="Header-Nav" transform="translate(20.000000, 18.000000)">
                <g id="Logo" transform="translate(0.000000, 2.000000)">
                    <g id="Text" transform="translate(71.180766, 22.580645)" fill="#221F20">
                        <polygon id="Fill-14" points="9.37858458 0.352130056 9.37858458 4.13282642 6.6292917 4.13282642 6.6292917 21.8258116 2.77931616 21.8258116 2.77931616 4.13282642 0.0276095091 4.13282642 0.0276095091 0.352130056"></polygon>
                        <polygon id="Fill-16" points="14.2474157 21.8255709 10.3974402 21.8255709 10.3974402 0.351889401 14.2474157 0.351889401 14.2474157 8.54861239 16.274989 8.54861239 16.274989 0.351889401 20.1249646 0.351889401 20.1249646 21.8255709 16.274989 21.8255709 16.274989 12.7624885 14.2474157 12.7624885"></polygon>
                        <polygon id="Fill-18" points="30.0016605 0.352130056 30.0016605 4.13282642 25.8041009 4.13282642 25.8041009 8.80876088 29.1037351 8.80876088 29.1037351 12.6760932 25.8041009 12.6760932 25.8041009 17.9560727 30.2044178 17.9560727 30.2044178 21.8258116 21.9541254 21.8258116 21.9541254 0.352130056"></polygon>
                        <path d="M6.31067304,36.2037686 L7.03480637,36.2037686 C7.90376637,36.2037686 8.0196277,35.6550742 8.0196277,34.9908653 L8.0196277,31.4123195 C8.0196277,30.6614747 7.90376637,30.141659 7.03480637,30.141659 L6.31067304,30.141659 L6.31067304,36.2037686 Z M6.31067304,39.6956784 L6.31067304,48.2967025 L2.4606975,48.2967025 L2.4606975,26.8254275 L7.9327317,26.8254275 C11.2034006,26.8254275 11.8985686,28.4402253 11.8985686,31.0657757 L11.8985686,35.3662878 C11.8985686,37.9942448 10.8268512,39.6956784 8.13548903,39.6956784 L6.31067304,39.6956784 Z" id="Fill-20"></path>
                        <polygon id="Fill-22" points="13.2362842 48.2974245 17.0862598 48.2974245 17.0862598 26.823743 13.2362842 26.823743"></polygon>
                        <polygon id="Fill-24" points="27.4524698 26.8242243 27.4524698 30.6049206 24.7031769 30.6049206 24.7031769 48.2979058 20.8532013 48.2979058 20.8532013 30.6049206 18.1014947 30.6049206 18.1014947 26.8242243"></polygon>
                        <polygon id="Fill-25" points="37.7356458 26.8242243 37.7356458 30.6049206 34.9863529 30.6049206 34.9863529 48.2979058 31.1363774 48.2979058 31.1363774 30.6049206 28.3846707 30.6049206 28.3846707 26.8242243"></polygon>
                        <path d="M43.5026436,26.5633538 C46.5126245,26.5633538 47.6422725,27.9495289 47.6422725,30.7772299 L47.6422725,33.6626882 L43.9371236,33.6626882 L43.9371236,30.9793804 C43.9371236,30.2886994 43.792297,29.8531132 43.097129,29.8531132 C42.4309263,29.8531132 42.2571343,30.2886994 42.2571343,31.0106656 L42.2571343,31.4991961 C42.2571343,32.5099488 42.488857,33.2030364 43.444713,34.2691398 L45.6436645,36.7238249 C47.5843418,38.8873169 47.9898565,40.4178853 47.9898565,42.2372401 L47.9898565,43.2479928 C47.9898565,46.4511162 46.4836592,48.5592576 43.2998863,48.5592576 L42.5467876,48.5592576 C39.6237028,48.5592576 38.1464708,46.997404 38.1464708,44.1119457 L38.1464708,40.24702 L41.9385157,40.24702 L41.9385157,43.678766 C41.9385157,44.5451254 42.228169,44.9783052 42.923337,44.9783052 C43.5895396,44.9783052 43.879193,44.4608961 43.879193,43.4188582 L43.879193,43.0169636 C43.879193,41.5152739 43.7633316,40.9088223 42.6336836,39.6670405 L40.403353,37.2147619 C38.8126734,35.482043 38.3492281,33.7806093 38.3492281,31.7591039 L38.3492281,30.8349872 C38.3492281,28.0939222 40.0292174,26.5633538 42.7205796,26.5633538 L43.5026436,26.5633538 Z" id="Fill-26"></path>
                        <path d="M53.4664769,38.6854071 L53.4664769,44.8919099 L54.5357804,44.8919099 C55.1754316,44.8919099 55.5206018,44.6897593 55.5206018,43.4768561 L55.5206018,39.9849462 C55.5206018,39.0897081 55.2599138,38.6854071 54.3933676,38.6854071 L53.4664769,38.6854071 Z M53.4664769,30.1132616 L53.4664769,35.2247824 L54.3330231,35.2247824 C54.9726742,35.2247824 55.3781889,34.9335893 55.3781889,33.9517153 L55.3781889,31.2684076 C55.3781889,30.4886841 55.1175009,30.1132616 54.3933676,30.1132616 L53.4664769,30.1132616 Z M49.6165014,26.8235023 L55.4337058,26.8235023 C58.0116204,26.8235023 59.16782,27.834255 59.16782,30.661956 L59.16782,33.5209421 C59.16782,35.2801331 58.1274818,36.2620072 57.3454178,36.521915 C58.4461004,36.8107015 59.4864386,37.6193036 59.4864386,39.8983103 L59.4864386,43.4768561 C59.4864386,46.855658 58.29886,48.2971838 55.9550818,48.2971838 L49.6165014,48.2971838 L49.6165014,26.8235023 Z" id="Fill-27"></path>
                        <path d="M60.9412225,26.8242243 L64.9070594,26.8242243 L64.9070594,43.4486994 C64.9070594,44.2861802 65.1967127,44.7771173 65.8629154,44.7771173 C66.529118,44.7771173 66.789806,44.2861802 66.789806,43.4486994 L66.789806,26.8242243 L70.7556429,26.8242243 L70.7556429,43.3043062 C70.7556429,46.8275013 69.0177229,48.6155709 66.2973954,48.6155709 L65.3415394,48.6155709 C62.5343158,48.6155709 60.9412225,46.8275013 60.9412225,43.3043062 L60.9412225,26.8242243 Z" id="Fill-28"></path>
                        <path d="M76.5506406,35.5691603 L77.3037392,35.5691603 C78.0568379,35.5691603 78.3754566,35.2803738 78.3754566,34.2696211 L78.3754566,31.3552842 C78.3754566,30.4311674 78.2016646,30.142381 77.4196006,30.142381 L76.5506406,30.142381 L76.5506406,35.5691603 Z M76.5506406,48.2974245 L72.700665,48.2974245 L72.700665,26.823743 L78.7809712,26.823743 C81.1247494,26.823743 82.3123281,28.1208756 82.3123281,30.4046953 L82.3123281,33.8364414 C82.3123281,35.5691603 81.3275068,36.4331132 80.6033734,36.7218996 C81.2406108,36.9529288 82.2543974,37.6460164 82.2543974,39.2632207 L82.2543974,46.5647056 C82.2543974,47.4888223 82.4281894,47.8931234 82.5730161,48.1530312 L82.5730161,48.2974245 L78.7230406,48.2974245 C78.5492486,48.0663953 78.3754566,47.6043369 78.3754566,46.6513415 L78.3754566,40.389488 C78.3754566,39.4076139 78.1437339,39.121234 77.3616699,39.121234 L76.5506406,39.121234 L76.5506406,48.2974245 Z" id="Fill-29"></path>
                        <path d="M87.5577086,48.5866923 C85.2984126,48.5866923 84.055317,46.6518228 84.055317,44.3728162 L84.055317,31.5867947 C84.055317,28.929959 85.1535859,26.5643164 88.5425299,26.5643164 L89.3221801,26.5643164 C93.1166388,26.5643164 93.7828414,28.9877163 93.7828414,31.557916 L93.7828414,33.9235586 L90.0197619,33.9235586 L90.0197619,31.5290374 C90.0197619,30.6626779 89.8170046,30.1717409 89.0349406,30.1717409 C88.3687379,30.1717409 88.0790846,30.6337993 88.0790846,31.5290374 L88.0790846,43.4775781 C88.0790846,44.4016948 88.4556339,44.8637532 89.1194228,44.8637532 C89.8459699,44.8637532 90.2490708,44.4016948 90.2490708,43.5353354 L90.2490708,38.9171582 L88.8321832,38.9171582 L88.8321832,35.3073272 L93.9542197,35.3073272 L93.9542197,48.2979058 L91.6104414,48.2979058 C91.4945801,47.8069688 91.2628574,46.9141372 91.0311348,46.2475218 C90.6835508,46.969488 89.7590739,48.5866923 87.8473619,48.5866923 L87.5577086,48.5866923 Z" id="Fill-30"></path>
                        <polygon id="Fill-31" points="99.6937004 48.2976651 95.8437249 48.2976651 95.8437249 26.8239836 99.6937004 26.8239836 99.6937004 35.0207066 101.71886 35.0207066 101.71886 26.8239836 105.571249 26.8239836 105.571249 48.2976651 101.71886 48.2976651 101.71886 39.2345827 99.6937004 39.2345827"></polygon>
                        <polygon id="Fill-32" points="2.2869055 53.2963185 10.5371979 53.2963185 10.5371979 57.0481362 6.13688104 57.0481362 6.13688104 61.7240707 9.37858458 61.7240707 9.37858458 65.591403 6.13688104 65.591403 6.13688104 74.77 2.2869055 74.77"></polygon>
                        <path d="M17.7230143,58.2035228 C17.7230143,57.2505274 17.4043957,56.788469 16.7092277,56.788469 C15.9585428,56.788469 15.6664757,57.2505274 15.6664757,58.2035228 L15.6664757,69.9787916 C15.6664757,70.6430005 15.9271637,71.2494521 16.738193,71.2494521 C17.520257,71.2494521 17.7230143,70.6430005 17.7230143,69.9787916 L17.7230143,58.2035228 Z M21.7467819,69.863277 C21.7467819,73.0086431 20.0692063,75.0879058 17.172673,75.0879058 L16.3061268,75.0879058 C13.2647668,75.0879058 11.6427081,73.2107937 11.6427081,69.863277 L11.6427081,58.5211879 C11.6427081,55.2001434 12.9461481,53.0366513 16.2747477,53.0366513 L17.1437077,53.0366513 C20.5326516,53.0366513 21.7467819,55.2001434 21.7467819,58.4899027 L21.7467819,69.863277 Z" id="Fill-33"></path>
                        <path d="M23.7210107,53.2963185 L27.6868476,53.2963185 L27.6868476,69.9207937 C27.6868476,70.7582744 27.9765009,71.2492115 28.6427036,71.2492115 C29.3089062,71.2492115 29.5695942,70.7582744 29.5695942,69.9207937 L29.5695942,53.2963185 L33.5354311,53.2963185 L33.5354311,69.7764004 C33.5354311,73.2995955 31.7975111,75.0876651 29.0771836,75.0876651 L28.1213276,75.0876651 C25.314104,75.0876651 23.7210107,73.2995955 23.7210107,69.7764004 L23.7210107,53.2963185 Z" id="Fill-34"></path>
                        <polygon id="Fill-35" points="39.2160157 53.2963185 41.8494473 64.2653917 41.8494473 53.2963185 45.2673566 53.2963185 45.2673566 74.77 41.9942739 74.77 39.0132584 62.9923246 39.0132584 74.77 35.5977628 74.77 35.5977628 53.2963185"></polygon>
                        <path d="M51.205974,71.1904916 L51.9590727,71.1904916 C52.8280327,71.1904916 53.0887207,70.7308397 53.0887207,69.6912084 L53.0887207,58.1445622 C53.0887207,57.1049309 52.7990673,56.7006298 52.074934,56.7006298 L51.205974,56.7006298 L51.205974,71.1904916 Z M47.3559985,53.2953559 L52.8280327,53.2953559 C55.6931869,53.2953559 57.0255922,54.6237737 57.0255922,57.8846544 L57.0255922,70.0088735 C57.0255922,73.0651971 55.9828402,74.7690374 52.8280327,74.7690374 L47.3559985,74.7690374 L47.3559985,53.2953559 Z" id="Fill-36"></path>
                        <path d="M61.9525954,67.4677931 L63.5167234,67.4677931 L62.7056941,60.1061444 L61.9525954,67.4677931 Z M63.8932727,71.1618536 L61.5760461,71.1618536 L61.2284621,74.769278 L57.8129665,74.769278 L60.5357078,53.2955965 L65.1098167,53.2955965 L68.0329016,74.769278 L64.2987874,74.769278 L63.8932727,71.1618536 Z" id="Fill-37"></path>
                        <polygon id="Fill-38" points="76.5472613 53.2963185 76.5472613 57.0770148 73.7979684 57.0770148 73.7979684 74.77 69.9479929 74.77 69.9479929 57.0770148 67.1962862 57.0770148 67.1962862 53.2963185"></polygon>
                        <polygon id="Fill-39" points="77.6841506 74.7695187 81.5341262 74.7695187 81.5341262 53.2958372 77.6841506 53.2958372"></polygon>
                        <path d="M89.6120748,58.2035228 C89.6120748,57.2505274 89.2934562,56.788469 88.5982882,56.788469 C87.8476033,56.788469 87.5555362,57.2505274 87.5555362,58.2035228 L87.5555362,69.9787916 C87.5555362,70.6430005 87.8162242,71.2494521 88.6272535,71.2494521 C89.4093175,71.2494521 89.6120748,70.6430005 89.6120748,69.9787916 L89.6120748,58.2035228 Z M93.6358424,69.863277 C93.6358424,73.0086431 91.9582668,75.0879058 89.0617335,75.0879058 L88.1951873,75.0879058 C85.1538273,75.0879058 83.5317686,73.2107937 83.5317686,69.863277 L83.5317686,58.5211879 C83.5317686,55.2001434 84.8352086,53.0366513 88.1638082,53.0366513 L89.0327682,53.0366513 C92.4217122,53.0366513 93.6358424,55.2001434 93.6358424,58.4899027 L93.6358424,69.863277 Z" id="Fill-40"></path>
                        <polygon id="Fill-41" points="99.113911 53.2963185 101.747343 64.2653917 101.747343 53.2963185 105.165252 53.2963185 105.165252 74.77 101.892169 74.77 98.9111537 62.9923246 98.9111537 74.77 95.4956581 74.77 95.4956581 53.2963185"></polygon>
                    </g>
                    <g id="Mark" fill="#389BD7">
                        <path d="M40.5188805,92.1597081 C38.0206205,92.9370251 35.6623596,93.6710241 30.8227352,93.6710241 C25.9855246,93.6710241 23.6248499,92.9370251 21.1265899,92.1597081 C18.3652281,91.3005684 15.509729,90.4125499 9.87355796,90.4125499 C5.15944998,90.4125499 2.39567443,91.0358474 0.00120688888,91.7409677 L0.00120688888,97.1869995 C0.0591375553,97.1701536 0.117068222,97.1509012 0.174998888,97.1340553 C2.67325888,96.3567384 5.03151976,95.6227394 9.87355796,95.6227394 C14.7131824,95.6227394 17.073857,96.3567384 19.5697033,97.1340553 C22.3334788,97.9931951 25.1889779,98.8812135 30.8227352,98.8812135 C36.4589063,98.8812135 39.3144054,97.9931951 42.0757672,97.1340553 C44.5716134,96.3567384 46.932288,95.6227394 51.7719125,95.6227394 C56.6091231,95.6227394 58.9697978,96.3567384 61.465644,97.1340553 C61.5139195,97.1484946 61.5646089,97.1653405 61.6128844,97.1797798 L61.6128844,91.7337481 C59.2232444,91.0310343 56.4642964,90.4125499 51.7719125,90.4125499 C46.1357414,90.4125499 43.2802423,91.3005684 40.5188805,92.1597081" id="Fill-1"></path>
                        <path d="M30.8227352,84.2688582 C25.9855246,84.2688582 23.6248499,83.5348592 21.1265899,82.7575422 C18.3652281,81.8984025 15.509729,81.010384 9.87355796,81.010384 C5.15944998,81.010384 2.39567443,81.6336815 0.00120688888,82.3388018 L0.00120688888,87.7848336 C0.0591375553,87.7679877 0.117068222,87.7487353 0.174998888,87.7318894 C2.67325888,86.9545725 5.03151976,86.2205735 9.87355796,86.2205735 C14.7131824,86.2205735 17.073857,86.9545725 19.5697033,87.7318894 C22.3334788,88.5910292 25.1889779,89.4790476 30.8227352,89.4790476 C36.4589063,89.4790476 39.3144054,88.5910292 42.0757672,87.7318894 C44.5716134,86.9545725 46.932288,86.2205735 51.7719125,86.2205735 C56.6091231,86.2205735 58.9697978,86.9545725 61.465644,87.7318894 C61.5139195,87.7463287 61.5646089,87.7631746 61.6128844,87.7776139 L61.6128844,82.3315822 C59.2232444,81.6288684 56.4642964,81.010384 51.7719125,81.010384 C46.1357414,81.010384 43.2802423,81.8984025 40.5188805,82.7575422 C38.0206205,83.5348592 35.6623596,84.2688582 30.8227352,84.2688582 Z" id="Fill-4"></path>
                        <path d="M53.015008,8.03403994 L47.7071107,14.0768971 L42.3992134,8.03403994 L33.801337,18.0765899 L33.801337,52.2424373 C35.517533,51.4554941 37.255453,50.7263082 39.0295796,50.0933845 L39.0295796,35.5952846 L39.0295796,19.9994265 L42.4499027,16.0021403 L45.9933285,20.0355248 L49.4208929,20.0355248 L52.9643187,16.0021403 L56.3870555,19.9994265 L56.3870555,46.5340911 C57.6735991,46.4546749 58.967384,46.4089503 60.2684102,46.4089503 L61.6128844,46.4089503 L61.6128844,18.0765899 L53.015008,8.03403994 Z" id="Fill-6"></path>
                        <path d="M51.7707056,71.5620123 C50.1824398,71.5620123 48.833138,71.639022 47.6262491,71.7593497 L47.6262491,56.3646237 C50.4938171,55.6811623 53.4217296,55.2431695 56.3858487,55.0313927 L56.3858487,71.8026677 C55.0703398,71.6534613 53.5641424,71.5620123 51.7707056,71.5620123 M40.5176736,73.3091705 C38.5649274,73.9156221 36.6773532,74.4931951 33.638407,74.7170046 L33.638407,61.8010292 C36.4528719,60.2488018 39.3831981,58.9444496 42.4004203,57.9024117 L42.4004203,72.7460369 C41.7511141,72.928935 41.1307732,73.1190527 40.5176736,73.3091705 M19.4574626,72.8062007 C22.2188244,69.8990835 25.2167363,67.3096313 28.4125781,65.0691295 L28.4125781,74.7410701 C25.1346679,74.5413262 23.1650252,73.9420942 21.1277968,73.3091705 C20.582283,73.1407117 20.0295279,72.9722529 19.4574626,72.8062007 M13.4278457,71.7015924 C12.3706111,71.6149565 11.2047564,71.5620123 9.87235107,71.5620123 C8.0668453,71.5620123 6.54857908,71.6534613 5.22582887,71.8074808 L5.22582887,12.7386124 L11.5499266,5.21091142 L26.4863834,5.21091142 L33.4284083,13.4966769 L36.8704554,9.47532514 L28.9315403,0.000721966206 L9.1095973,0.000721966206 L0,10.8470609 L0,72.8904301 L0,75.0057911 L0,78.3364619 C0.0579306664,78.319616 0.118275111,78.3003635 0.176205777,78.2835177 C2.67205199,77.5062007 5.03272665,76.7722017 9.87235107,76.7722017 C14.7119755,76.7722017 17.0726502,77.5062007 19.5709101,78.2835177 C22.3322719,79.1426575 25.187771,80.0306759 30.8239421,80.0306759 C36.4576994,80.0306759 39.3131985,79.1426575 42.0745603,78.2835177 C44.5728203,77.5062007 46.9310811,76.7722017 51.7707056,76.7722017 C56.61033,76.7722017 58.9685909,77.5062007 61.4668509,78.2835177 C61.5151264,78.297957 61.563402,78.3123963 61.6116775,78.3292422 L61.6116775,74.4859754 L61.6116775,73.0444496 L61.6116775,72.8832104 L61.6116775,54.8773733 L61.6116775,52.9232514 L61.6116775,52.2879211 L61.6116775,49.6647773 L60.2672033,49.6647773 C42.3883514,49.6647773 25.4605279,57.6761956 13.4278457,71.7015924" id="Fill-8"></path>
                        <path d="M18.4822964,31.2801485 L23.0781292,25.7932053 L28.2822341,32.0045212 L32.2939328,28.6642243 L23.0781292,17.6638658 L13.2564675,29.3910036 L13.2564675,67.010256 C14.9219742,65.2534716 16.6671355,63.5977624 18.4822964,62.0479416 L18.4822964,31.2801485 Z" id="Fill-10"></path>
                        <path d="" id="Fill-12"></path>
                    </g>
                </g>
            </g>
        </g>
    </g>
</svg>